<?xml version="1.0" standalone="no"?>
<!DOCTYPE svg PUBLIC "-//W3C//DTD SVG 20010904//EN"
 "http://www.w3.org/TR/2001/REC-SVG-20010904/DTD/svg10.dtd">
<svg version="1.0" xmlns="http://www.w3.org/2000/svg"
 width="626.000000pt" height="500.000000pt" viewBox="0 0 626.000000 500.000000"
 preserveAspectRatio="xMidYMid meet">

<g transform="translate(0.000000,500.000000) scale(0.100000,-0.100000)"
fill="#000000" stroke="none">
<path d="M2290 3790 c-11 -11 -20 -27 -20 -35 0 -13 94 -15 784 -15 461 0 787
4 790 9 11 17 -6 40 -36 50 -21 8 -269 11 -764 11 -721 0 -734 0 -754 -20z
m1510 -15 c0 -8 -6 -15 -14 -15 -8 0 -16 7 -20 15 -4 10 1 15 14 15 11 0 20
-7 20 -15z"/>
<path d="M3593 3673 c15 -2 39 -2 55 0 15 2 2 4 -28 4 -30 0 -43 -2 -27 -4z"/>
<path d="M3550 3651 c0 -6 4 -13 10 -16 6 -3 7 1 4 9 -7 18 -14 21 -14 7z"/>
<path d="M3584 3638 c-3 -4 11 -8 30 -8 20 0 36 2 36 4 0 8 -61 12 -66 4z"/>
<path d="M4297 3572 c-9 -2 -15 -7 -12 -12 3 -4 -3 -7 -12 -6 -24 2 -70 -69
-92 -141 l-19 -62 42 26 c79 51 146 129 146 172 0 14 -31 28 -53 23z m13 -52
c0 -5 -2 -10 -4 -10 -3 0 -8 5 -11 10 -3 6 -1 10 4 10 6 0 11 -4 11 -10z m-30
-20 c0 -5 -5 -10 -11 -10 -5 0 -7 5 -4 10 3 6 8 10 11 10 2 0 4 -4 4 -10z m5
-41 c-10 -15 -25 -10 -19 6 4 8 10 12 15 9 5 -3 7 -10 4 -15z"/>
<path d="M2682 3470 c0 -14 2 -19 5 -12 2 6 2 18 0 25 -3 6 -5 1 -5 -13z"/>
<path d="M2623 3453 c9 -2 25 -2 35 0 9 3 1 5 -18 5 -19 0 -27 -2 -17 -5z"/>
<path d="M3985 3438 c-8 -13 -11 -24 -6 -26 6 -2 7 -10 5 -17 -8 -19 34 -77
48 -69 6 4 8 2 5 -3 -4 -6 2 -22 13 -36 11 -14 20 -31 20 -39 0 -10 3 -9 10 2
23 36 4 156 -31 191 -25 25 -44 24 -64 -3z m39 3 c3 -5 -3 -11 -15 -14 -16 -4
-18 -3 -8 9 13 16 16 17 23 5z m41 -49 c-3 -3 -11 0 -18 7 -9 10 -8 11 6 5 10
-3 15 -9 12 -12z"/>
<path d="M2144 3416 c-9 -24 35 -111 79 -154 l42 -41 -3 62 c-4 84 -9 103 -34
127 -25 23 -76 27 -84 6z m98 -90 c7 4 8 2 4 -5 -9 -13 -26 -5 -25 12 0 9 2 8
6 -1 2 -6 10 -9 15 -6z"/>
<path d="M4195 3312 c-22 -11 -46 -26 -54 -35 -7 -9 -17 -14 -22 -11 -8 5 -13
-9 -6 -21 1 -2 -7 -11 -18 -19 -18 -14 -16 -14 24 -1 24 8 67 15 95 15 62 0
100 24 94 61 -2 20 -9 24 -38 27 -19 1 -53 -6 -75 -16z m90 -32 c-3 -5 -12
-10 -18 -10 -7 0 -6 4 3 10 19 12 23 12 15 0z m-121 -18 c3 -5 -1 -9 -9 -9 -8
0 -12 4 -9 9 3 4 7 8 9 8 2 0 6 -4 9 -8z"/>
<path d="M3868 3269 c-32 -18 -22 -56 25 -90 23 -17 41 -33 39 -35 -1 -3 -130
-5 -287 -4 -273 1 -285 0 -305 -20 -11 -11 -20 -24 -20 -30 0 -7 252 -10 735
-10 639 0 735 2 735 15 0 38 -68 45 -471 46 l-317 2 -12 40 c-13 46 -60 97
-87 97 -10 0 -26 -5 -35 -11z m70 -34 c-3 -3 -9 2 -12 12 -6 14 -5 15 5 6 7
-7 10 -15 7 -18z m-67 -8 c-10 -9 -11 -8 -5 6 3 10 9 15 12 12 3 -3 0 -11 -7
-18z m31 -12 c3 -14 1 -25 -3 -25 -5 0 -9 11 -9 25 0 14 2 25 4 25 2 0 6 -11
8 -25z m72 -20 c3 -8 1 -15 -4 -15 -6 0 -10 7 -10 15 0 8 2 15 4 15 2 0 6 -7
10 -15z m776 -85 c0 -5 -7 -10 -15 -10 -8 0 -15 5 -15 10 0 6 7 10 15 10 8 0
15 -4 15 -10z"/>
<path d="M3250 3210 l-65 -7 67 -1 c37 -1 70 3 73 8 3 6 3 9 -2 8 -4 -1 -37
-4 -73 -8z"/>
<path d="M3118 3203 c12 -2 32 -2 45 0 12 2 2 4 -23 4 -25 0 -35 -2 -22 -4z"/>
<path d="M2150 3171 c-19 -36 12 -68 83 -85 26 -6 27 -5 27 33 0 36 -3 40 -40
55 -51 20 -57 20 -70 -3z m55 -41 c-27 -12 -43 -12 -25 0 8 5 22 9 30 9 10 0
8 -3 -5 -9z"/>
<path d="M2658 3113 c7 -3 16 -2 19 1 4 3 -2 6 -13 5 -11 0 -14 -3 -6 -6z"/>
<path d="M4323 3015 c0 -8 4 -15 9 -15 4 0 8 7 8 15 0 8 -4 15 -8 15 -5 0 -9
-7 -9 -15z"/>
<path d="M4423 3023 c9 -2 23 -2 30 0 6 3 -1 5 -18 5 -16 0 -22 -2 -12 -5z"/>
<path d="M4562 3016 c7 -8 15 -10 18 -6 3 4 12 10 20 13 8 3 0 6 -18 6 -28 1
-31 -1 -20 -13z"/>
<path d="M4270 3010 c0 -5 5 -10 11 -10 5 0 7 5 4 10 -3 6 -8 10 -11 10 -2 0
-4 -4 -4 -10z"/>
<path d="M2240 2986 c0 -8 -12 -24 -27 -36 -27 -21 -27 -22 -9 -36 11 -8 30
-14 43 -14 21 0 23 4 23 50 0 38 -4 50 -15 50 -8 0 -15 -6 -15 -14z"/>
<path d="M2697 2980 c-3 -11 -1 -20 4 -20 5 0 9 9 9 20 0 11 -2 20 -4 20 -2 0
-6 -9 -9 -20z"/>
<path d="M2658 2963 c7 -3 16 -2 19 1 4 3 -2 6 -13 5 -11 0 -14 -3 -6 -6z"/>
<path d="M3537 2873 c-4 -3 -7 -11 -7 -17 0 -7 3 -7 8 1 4 6 21 13 37 16 l30
4 -31 2 c-17 0 -34 -2 -37 -6z"/>
<path d="M2212 2774 c-24 -16 -29 -39 -11 -50 13 -8 31 16 24 33 -2 6 1 14 8
16 7 2 9 7 6 10 -3 4 -15 0 -27 -9z m8 -24 c0 -5 -5 -10 -11 -10 -5 0 -7 5 -4
10 3 6 8 10 11 10 2 0 4 -4 4 -10z"/>
<path d="M1303 2725 c0 -27 2 -38 4 -22 2 15 2 37 0 50 -2 12 -4 0 -4 -28z"/>
<path d="M4170 2759 c0 -5 5 -7 10 -4 6 3 10 8 10 11 0 2 -4 4 -10 4 -5 0 -10
-5 -10 -11z"/>
<path d="M4224 2759 c-3 -6 -3 -13 0 -16 3 -4 6 -1 6 5 0 19 18 14 22 -5 3
-16 5 -15 9 2 5 15 1 21 -12 22 -10 1 -21 -3 -25 -8z"/>
<path d="M4188 2663 c7 -3 16 -2 19 1 4 3 -2 6 -13 5 -11 0 -14 -3 -6 -6z"/>
<path d="M4235 2640 c-3 -5 1 -10 10 -10 9 0 13 5 10 10 -3 6 -8 10 -10 10 -2
0 -7 -4 -10 -10z"/>
<path d="M4188 2633 c7 -3 16 -2 19 1 4 3 -2 6 -13 5 -11 0 -14 -3 -6 -6z"/>
<path d="M2244 2616 c-7 -7 -6 -21 5 -48 16 -37 17 -38 71 -37 43 1 49 3 30 9
-25 8 -25 8 4 9 28 1 29 2 10 16 -18 14 -18 14 4 8 34 -8 26 3 -15 22 -53 26
-96 34 -109 21z"/>
<path d="M2562 2618 c-7 -7 -12 -24 -12 -38 0 -14 -7 -36 -16 -48 -8 -12 -12
-22 -7 -22 17 0 30 16 37 42 4 18 15 30 31 34 14 3 22 10 19 15 -3 5 0 9 5 9
6 0 11 -6 11 -14 0 -27 29 -25 66 5 l37 29 -80 0 c-48 0 -84 -5 -91 -12z m98
-33 c0 -5 -5 -3 -10 5 -5 8 -10 20 -10 25 0 6 5 3 10 -5 5 -8 10 -19 10 -25z"/>
<path d="M4177 2553 c-4 -3 -7 -11 -7 -17 0 -6 5 -5 12 2 6 6 9 14 7 17 -3 3
-9 2 -12 -2z"/>
<path d="M4254 2552 c3 -5 0 -13 -6 -15 -8 -3 -6 -6 5 -6 19 -1 23 14 5 25 -6
4 -8 3 -4 -4z"/>
<path d="M2200 2540 c8 -5 22 -9 30 -9 10 0 8 3 -5 9 -27 12 -43 12 -25 0z"/>
<path d="M3085 2511 c-26 -4 -45 -20 -45 -37 0 -11 28 -14 140 -14 l140 0 0
29 0 28 -107 -1 c-60 0 -117 -3 -128 -5z"/>
<path d="M2717 2474 c-11 -11 14 -46 28 -41 9 4 11 -1 7 -15 -4 -15 -7 -17
-13 -6 -6 9 -9 9 -9 1 0 -26 20 -22 35 7 13 25 14 35 4 46 -12 14 -41 19 -52
8z"/>
<path d="M4170 2439 c0 -11 4 -18 10 -14 5 3 7 12 3 20 -7 21 -13 19 -13 -6z"/>
<path d="M4213 2453 c9 -2 25 -2 35 0 9 3 1 5 -18 5 -19 0 -27 -2 -17 -5z"/>
<path d="M2619 2421 c-22 -22 -35 -46 -21 -37 6 4 27 0 47 -8 40 -17 73 -12
52 7 -61 55 -61 56 -78 38z m55 -31 c5 -5 7 -12 4 -15 -3 -3 -12 1 -21 9 -8 8
-17 13 -20 10 -3 -3 -8 -1 -11 5 -8 13 34 5 48 -9z"/>
<path d="M4240 2430 c-23 -7 -23 -8 -3 -9 12 -1 25 4 28 9 3 6 5 10 3 9 -2 -1
-14 -5 -28 -9z"/>
<path d="M2250 2400 c0 -5 9 -10 21 -10 11 0 18 -3 15 -8 -2 -4 7 -12 20 -19
28 -13 29 -10 8 22 -16 25 -64 36 -64 15z"/>
<path d="M2383 2355 c-31 -35 -6 -52 76 -54 22 0 21 3 -15 35 -44 38 -44 39
-61 19z"/>
<path d="M2210 2330 c-11 -7 -9 -11 14 -20 36 -13 128 -11 123 4 -7 21 -110
33 -137 16z"/>
<path d="M1672 2278 c-46 -10 -100 -57 -128 -109 -8 -17 -22 -60 -29 -96 -12
-59 -20 -72 -69 -121 -31 -31 -56 -59 -56 -63 0 -5 21 14 46 41 26 28 50 50
55 50 12 0 -20 -86 -39 -103 -23 -19 -62 -31 -62 -18 0 5 -16 -5 -36 -23 -47
-43 -55 -98 -25 -174 27 -69 26 -87 -6 -109 -42 -29 -93 -80 -93 -94 0 -8 8
-5 23 8 50 46 127 62 209 43 133 -32 199 -116 281 -355 73 -215 106 -292 148
-347 74 -99 153 -140 311 -159 51 -6 95 -13 97 -15 3 -3 -6 -12 -19 -22 -73
-54 -107 -73 -165 -94 -36 -12 -65 -26 -65 -31 0 -4 9 -25 20 -47 l20 -39 191
2 191 2 20 50 c34 88 68 228 68 285 0 109 -33 131 -278 191 -70 17 -143 37
-162 44 -19 7 -51 18 -70 24 l-35 11 40 -7 c22 -4 58 -7 80 -6 31 0 35 -1 20
-8 -18 -8 -18 -9 5 -8 14 1 277 1 586 0 l561 -1 37 -142 c20 -79 55 -209 78
-291 l41 -147 33 2 c19 1 34 5 34 8 0 3 -14 80 -31 170 -16 91 -41 226 -54
300 -13 74 -27 143 -30 152 -6 16 5 18 117 20 l123 3 0 120 0 120 -408 3
c-343 2 -416 0 -453 -13 -63 -21 -69 -20 -82 24 -7 21 -21 50 -32 63 -17 22
-25 25 -62 21 l-43 -5 -21 50 -21 50 -91 1 -90 1 -26 -50 c-29 -55 -31 -65
-14 -54 7 4 8 3 4 -5 -4 -6 -12 -9 -17 -6 -5 4 -9 1 -9 -4 0 -24 -23 -7 -118
87 -54 53 -120 116 -146 140 l-47 42 373 2 c654 3 638 3 649 19 5 7 9 147 9
310 l0 297 -22 6 c-13 3 -267 6 -564 6 -453 0 -543 -2 -547 -14 -6 -14 -48
-10 -127 14 -19 5 -35 10 -35 9 0 -1 -19 -5 -43 -11z m1178 -58 c0 -5 -4 -10
-10 -10 -5 0 -10 5 -10 10 0 6 5 10 10 10 6 0 10 -4 10 -10z m30 -252 c0 -128
-3 -243 -6 -256 l-6 -22 -432 2 -431 3 -3 253 -2 252 440 0 440 0 0 -232z
m-960 55 c19 -32 20 -39 7 -48 -8 -6 -18 -26 -22 -45 -4 -19 -13 -44 -20 -56
-7 -11 -15 -31 -17 -44 -3 -21 -7 -17 -29 26 -34 62 -46 146 -24 164 11 10 18
10 29 1 11 -10 18 -7 33 13 10 14 19 26 20 26 0 0 11 -17 23 -37z m507 -649
c-3 -3 -12 -4 -19 -1 -8 3 -5 6 6 6 11 1 17 -2 13 -5z m-437 -72 c-40 -4 -45
1 -30 28 l12 22 25 -24 25 -23 -32 -3z m20 -64 c0 -4 -4 -8 -9 -8 -6 0 -12 4
-15 8 -3 5 1 9 9 9 8 0 15 -4 15 -9z m57 6 c-3 -3 -12 -4 -19 -1 -8 3 -5 6 6
6 11 1 17 -2 13 -5z m650 -14 c-28 -22 -47 -26 -47 -9 0 5 5 7 10 4 6 -3 17 1
26 9 8 9 20 16 26 16 6 0 -1 -9 -15 -20z m140 14 c-3 -3 -12 -4 -19 -1 -8 3
-5 6 6 6 11 1 17 -2 13 -5z m666 -1 c6 -9 -473 -7 -481 2 -3 3 103 5 236 5
132 0 243 -3 245 -7z m-1607 -39 c-4 -14 -9 -24 -12 -21 -3 2 -2 17 2 31 3 15
9 25 11 22 3 -3 2 -17 -1 -32z m1244 6 c0 -5 -4 -10 -9 -10 -6 0 -13 5 -16 10
-3 6 1 10 9 10 9 0 16 -4 16 -10z m-577 -17 c-7 -2 -19 -2 -25 0 -7 3 -2 5 12
5 14 0 19 -2 13 -5z m137 3 c0 -3 -4 -8 -10 -11 -5 -3 -10 -1 -10 4 0 6 5 11
10 11 6 0 10 -2 10 -4z m807 -48 c-2 -13 -4 -5 -4 17 -1 22 1 32 4 23 2 -10 2
-28 0 -40z m-992 32 c3 -5 -3 -10 -15 -10 -12 0 -18 5 -15 10 3 6 10 10 15 10
5 0 12 -4 15 -10z m155 0 c0 -5 -4 -10 -10 -10 -5 0 -10 5 -10 10 0 6 5 10 10
10 6 0 10 -4 10 -10z m-207 -7 c3 -5 -13 -9 -35 -11 -22 -1 -56 -9 -75 -17
-20 -8 -59 -15 -87 -16 -39 0 -46 -3 -31 -10 19 -8 19 -9 1 -6 -32 4 -31 27 1
27 15 1 69 9 118 19 111 23 103 23 108 14z m100 -10 c-4 -11 -8 -13 -11 -5 -2
7 -9 9 -14 6 -7 -4 -8 -2 -4 4 12 19 36 15 29 -5z m572 7 c3 -5 1 -10 -4 -10
-6 0 -11 5 -11 10 0 6 2 10 4 10 3 0 8 -4 11 -10z m-935 -31 c0 -5 -7 -6 -15
-3 -8 4 -15 13 -15 21 0 13 3 13 15 3 8 -7 15 -16 15 -21z m-313 -9 c-4 -27
-17 -38 -17 -13 0 18 8 33 17 33 1 0 2 -9 0 -20z m170 14 c-3 -3 -12 -4 -19
-1 -8 3 -5 6 6 6 11 1 17 -2 13 -5z m608 -13 c3 -5 1 -12 -5 -16 -5 -3 -10 1
-10 9 0 18 6 21 15 7z m-515 -11 c0 -5 -5 -10 -11 -10 -5 0 -7 5 -4 10 3 6 8
10 11 10 2 0 4 -4 4 -10z m410 0 c0 -5 -4 -10 -10 -10 -5 0 -10 5 -10 10 0 6
5 10 10 10 6 0 10 -4 10 -10z m-623 -16 c-3 -3 -12 -4 -19 -1 -8 3 -5 6 6 6
11 1 17 -2 13 -5z m36 -81 c-6 -16 -13 -16 -35 1 -16 12 -15 13 11 12 18 -1
27 -5 24 -13z m60 0 c-7 -2 -21 -2 -30 0 -10 3 -4 5 12 5 17 0 24 -2 18 -5z
m1239 -11 c4 -13 0 -18 -13 -17 -24 2 -38 15 -16 15 10 0 17 5 17 10 0 16 7
11 12 -8z m-814 -16 c3 -4 -36 -5 -88 -4 -55 1 -85 5 -74 10 21 8 152 3 162
-6z m-211 -2 c-3 -3 -12 -4 -19 -1 -8 3 -5 6 6 6 11 1 17 -2 13 -5z"/>
<path d="M2070 2100 c0 -5 5 -10 11 -10 5 0 7 5 4 10 -3 6 -8 10 -11 10 -2 0
-4 -4 -4 -10z"/>
<path d="M2380 2100 c0 -6 78 -10 215 -10 137 0 215 4 215 10 0 6 -78 10 -215
10 -137 0 -215 -4 -215 -10z"/>
<path d="M2070 2030 c0 -5 5 -10 11 -10 5 0 7 5 4 10 -3 6 -8 10 -11 10 -2 0
-4 -4 -4 -10z"/>
<path d="M2380 2030 c0 -6 70 -10 190 -10 120 0 190 4 190 10 0 6 -70 10 -190
10 -120 0 -190 -4 -190 -10z"/>
<path d="M2075 1960 c-3 -5 -1 -10 4 -10 6 0 11 5 11 10 0 6 -2 10 -4 10 -3 0
-8 -4 -11 -10z"/>
<path d="M2382 1958 c4 -10 46 -14 156 -16 131 -2 152 0 152 13 0 13 -23 15
-156 15 -120 0 -155 -3 -152 -12z"/>
<path d="M2075 1901 c-3 -5 -1 -12 5 -16 5 -3 10 1 10 9 0 18 -6 21 -15 7z"/>
<path d="M2380 1880 c0 -6 58 -10 155 -10 97 0 155 4 155 10 0 6 -58 10 -155
10 -97 0 -155 -4 -155 -10z"/>
<path d="M2540 1824 c0 -11 25 -14 136 -14 104 0 135 3 131 13 -6 19 -267 21
-267 1z"/>
<path d="M3460 2205 c0 -13 38 -15 280 -15 242 0 280 2 280 15 0 13 -38 15
-280 15 -242 0 -280 -2 -280 -15z"/>
<path d="M4555 2199 c-22 -4 -56 -14 -75 -22 -31 -14 -33 -16 -15 -22 11 -4
35 -14 54 -22 67 -30 161 -29 161 2 0 19 -40 61 -65 66 -11 3 -38 2 -60 -2z
m108 -70 c-8 -8 -13 -7 -18 2 -6 8 -4 10 5 4 10 -6 12 -4 6 11 -6 15 -5 17 5
7 9 -10 10 -16 2 -24z"/>
<path d="M3640 2119 c0 -5 5 -7 10 -4 6 3 10 8 10 11 0 2 -4 4 -10 4 -5 0 -10
-5 -10 -11z"/>
<path d="M3693 2123 c15 -2 39 -2 55 0 15 2 2 4 -28 4 -30 0 -43 -2 -27 -4z"/>
<path d="M3790 2121 c10 -7 4 -11 -28 -14 l-42 -4 42 1 c40 1 56 16 26 24 -9
2 -9 1 2 -7z"/>
<path d="M4410 2052 c0 -48 17 -80 35 -64 5 4 5 1 1 -6 -10 -17 21 -52 44 -52
34 0 31 81 -3 114 -6 6 -27 22 -44 35 l-33 22 0 -49z m35 8 c-3 -5 -12 -10
-18 -10 -7 0 -6 4 3 10 19 12 23 12 15 0z m18 -35 c-3 -9 -8 -14 -10 -11 -3 3
-2 9 2 15 9 16 15 13 8 -4z"/>
<path d="M3460 2025 c0 -8 3 -15 8 -16 55 -5 496 -8 520 -4 19 4 32 12 32 20
0 13 -42 15 -280 15 -242 0 -280 -2 -280 -15z"/>
<path d="M3640 1930 c0 -5 5 -10 11 -10 5 0 7 5 4 10 -3 6 -8 10 -11 10 -2 0
-4 -4 -4 -10z"/>
<path d="M3795 1930 c-3 -5 -1 -10 4 -10 6 0 11 5 11 10 0 6 -2 10 -4 10 -3 0
-8 -4 -11 -10z"/>
<path d="M3460 1840 c0 -20 6 -20 281 -20 262 0 280 1 277 18 -3 16 -26 17
-281 20 -272 2 -277 2 -277 -18z"/>
<path d="M3230 1755 c0 -8 7 -15 15 -15 8 0 15 7 15 15 0 8 -7 15 -15 15 -8 0
-15 -7 -15 -15z"/>
<path d="M3320 1755 c0 -8 9 -15 20 -15 11 0 20 7 20 15 0 8 -9 15 -20 15 -11
0 -20 -7 -20 -15z"/>
<path d="M3400 1755 c0 -8 9 -15 20 -15 11 0 20 7 20 15 0 8 -9 15 -20 15 -11
0 -20 -7 -20 -15z"/>
<path d="M3500 1755 c0 -8 7 -15 15 -15 8 0 15 7 15 15 0 8 -7 15 -15 15 -8 0
-15 -7 -15 -15z"/>
<path d="M3590 1756 c0 -10 9 -16 21 -16 24 0 21 23 -4 28 -10 2 -17 -3 -17
-12z"/>
<path d="M2420 1585 c-16 -19 -6 -45 19 -45 23 0 35 28 20 46 -15 18 -24 18
-39 -1z"/>
<path d="M1496 456 c-10 -51 -8 -56 28 -56 31 0 34 3 43 39 l10 39 -38 4 c-34
3 -38 1 -43 -26z"/>
<path d="M1874 472 c-31 -3 -32 -4 -22 -36 9 -30 14 -33 55 -35 42 -2 44 -1
38 21 -4 13 -9 30 -11 39 -2 9 -10 15 -17 15 -6 -1 -26 -2 -43 -4z"/>
</g>
</svg>
